PathFileType  4	(X/Y/Z) C:\Users\antoi\Documents\MyRepositories\mobilecap\ResultsAnalysis
DataRate	CameraRate	NumFrames	NumMarkers	Units	OrigDataRate	OrigDataStartFrame	OrigNumFrames
100.0	100.0	4	51	mm	100.0	163	216
Frame#	Time	r_knee			r_shank_antsup			r_ankle			r_calc			r_5meta			r_toe			L_knee			L_shank_antsup			L_ankle			L_calc			L_5meta			L_toe			r_sh2			r_sh3			r_sh4			L_sh2			L_sh3			r_thigh1			r_thigh2			r_thigh3			r_thigh4			r_thigh5			L_thigh1			L_thigh2			L_thigh3			L_thigh4			r.ASIS			r.PSIS			L.ASIS			L.PSIS			C7			R_Shoulder			L_Shoulder			R_Sternum			L_Sternum			R_humerus			R_elbow_med			R_elbow_lat			R_forearm			R_wrist_radius			R_wrist_ulna			L_humerus			L_elbow_med			L_elbow_lat			L_forearm			L_wrist_radius			L_wrist_ulna			R_HJC			L_HJC			R_HJC_reg			L_HJC_reg			
		X1	Y1	Z1	X2	Y2	Z2	X3	Y3	Z3	X4	Y4	Z4	X5	Y5	Z5	X6	Y6	Z6	X7	Y7	Z7	X8	Y8	Z8	X9	Y9	Z9	X10	Y10	Z10	X11	Y11	Z11	X12	Y12	Z12	X13	Y13	Z13	X14	Y14	Z14	X15	Y15	Z15	X16	Y16	Z16	X17	Y17	Z17	X18	Y18	Z18	X19	Y19	Z19	X20	Y20	Z20	X21	Y21	Z21	X22	Y22	Z22	X23	Y23	Z23	X24	Y24	Z24	X25	Y25	Z25	X26	Y26	Z26	X27	Y27	Z27	X28	Y28	Z28	X29	Y29	Z29	X30	Y30	Z30	X31	Y31	Z31	X32	Y32	Z32	X33	Y33	Z33	X34	Y34	Z34	X35	Y35	Z35	X36	Y36	Z36	X37	Y37	Z37	X38	Y38	Z38	X39	Y39	Z39	X40	Y40	Z40	X41	Y41	Z41	X42	Y42	Z42	X43	Y43	Z43	X44	Y44	Z44	X45	Y45	Z45	X46	Y46	Z46	X47	Y47	Z47	X48	Y48	Z48	X49	Y49	Z49	X50	Y50	Z50	X51	Y51	Z51	

163	1.62000000	-117.19697	790.09960	-402.16450	-124.13675	718.30685	-382.11325	-196.29127	421.35476	-455.48619	-244.96156	459.21102	-508.80722	-171.78289	300.47782	-451.52194	-110.53285	293.06684	-488.24788	-130.01648	789.83320	-729.68971	-105.06266	722.05924	-730.45124	-203.65572	421.40672	-710.29729	-279.07336	433.12586	-667.28246	-155.49097	315.72884	-718.76862	-101.92278	317.11444	-664.18859	-148.18250	607.06904	-389.38712	-190.37409	734.37047	-412.86199	-220.27408	623.22809	-426.57755	-188.68777	746.71687	-752.89943	-208.15121	626.04753	-755.32269	-110.04225	1106.02691	-408.30872	-80.72696	998.39134	-391.83219	-130.48309	964.75693	-360.71354	-214.48675	1083.38066	-370.06824	-185.87905	969.64417	-372.77930	-115.02919	1080.85341	-743.98555	-89.99688	943.85581	-746.26395	-230.35136	1059.93774	-747.47703	-196.41261	922.33390	-741.28837	-129.79569	1245.57214	-431.41867	-302.02294	1266.41826	-519.15153	-116.70542	1245.31130	-689.17455	-301.70877	1263.91010	-620.41346	-169.88682	1724.46901	-546.10090	-124.22821	1650.90685	-397.56018	-98.16530	1668.54670	-700.27070	-62.74433	1624.89171	-526.16899	-55.97255	1630.24286	-566.14924	-143.19541	1434.52295	-281.62757	-179.82505	1319.44428	-309.89407	-168.13512	1355.72279	-244.39694	-77.33908	1266.81092	-228.46229	-13.92412	1169.64195	-227.67392	-43.93545	1149.46011	-201.77345	-52.15428	1567.28748	-772.34449	-76.13379	1348.82672	-835.74858	-40.89420	1384.44968	-881.15749	55.28594	1345.15493	-818.96693	123.58037	1272.34319	-748.13204	134.02525	1253.02244	-778.58197	-193.19106	1171.34381	-464.03581	-179.56366	1173.71566	-663.84989	-187.84056	1167.21792	-466.06318	-187.30756	1163.00293	-636.34974	
164	1.63000000	-116.11416	800.15084	-402.54767	-121.65250	728.10069	-381.99488	-190.37491	430.20741	-453.83181	-240.52628	465.58899	-507.45635	-162.40815	310.34398	-447.70492	-101.14522	304.06445	-484.79507	-130.88471	798.07466	-727.18926	-104.10370	731.08165	-728.87201	-192.20118	428.27350	-714.54117	-269.99197	434.98174	-672.87819	-138.83355	325.42816	-723.05068	-87.29564	327.58919	-666.67983	-144.69801	617.21818	-388.96906	-187.85253	743.36885	-413.27216	-216.56840	631.74422	-426.44110	-188.29268	752.88511	-751.89426	-203.25299	631.63910	-756.12903	-110.99206	1114.93061	-407.99712	-82.08972	1007.38369	-391.03634	-132.54573	973.34021	-361.63654	-216.37613	1092.42956	-371.58520	-188.03269	978.54771	-374.43686	-115.66248	1088.48963	-743.69789	-91.37864	951.50077	-744.08709	-230.99974	1068.28430	-746.39424	-197.91198	930.65797	-739.30567	-128.90052	1252.36220	-433.51351	-302.43309	1274.08471	-519.44552	-117.34350	1251.42339	-689.65378	-302.32347	1271.06404	-622.05018	-167.27500	1732.17411	-544.65521	-119.49413	1656.59197	-397.53066	-94.99199	1676.85813	-699.43977	-60.32613	1632.52481	-524.44491	-53.39435	1637.83939	-565.02615	-142.79095	1438.56539	-286.66964	-182.82280	1325.96682	-318.21764	-167.80285	1359.06305	-251.80850	-79.06248	1267.44417	-240.31250	-17.57487	1168.96000	-243.34523	-47.80097	1148.54030	-217.83471	-51.34233	1571.77257	-768.95819	-84.04347	1352.23674	-825.01086	-48.65052	1384.93520	-872.02056	47.88078	1341.61886	-812.13699	115.23754	1265.14797	-744.24714	123.39859	1245.23339	-775.05113	-193.41764	1178.46606	-464.99636	-180.54489	1180.20193	-664.86749	-188.11397	1175.01833	-467.43794	-187.93228	1170.03906	-636.59022	
165	1.64000000	-114.91515	808.45229	-403.13763	-120.23172	736.10895	-382.18203	-184.44989	437.50891	-451.53211	-236.21617	469.18439	-506.20785	-151.78515	318.89769	-442.89737	-90.29832	314.24665	-479.89216	-132.51112	804.73169	-725.19568	-103.77222	738.81551	-727.87753	-181.84703	433.97625	-718.01775	-261.00400	435.72119	-677.49791	-122.98804	335.00026	-728.02243	-73.01494	337.51946	-670.34679	-142.17740	625.39934	-388.88485	-186.24168	750.51617	-414.37554	-213.50226	638.52864	-427.21034	-188.65361	757.80627	-751.04978	-199.27416	636.18422	-756.46222	-111.34898	1123.00363	-408.67452	-82.51430	1015.65364	-390.91834	-133.29412	981.18422	-363.04798	-217.13204	1100.72021	-372.68442	-188.76364	986.61237	-375.87652	-115.33732	1095.23414	-742.54028	-92.01300	958.09765	-741.33540	-230.68439	1075.94927	-746.17920	-198.95873	938.02176	-739.02745	-128.02418	1258.25534	-435.87372	-302.64608	1281.04634	-519.00476	-117.60077	1256.53847	-690.68542	-302.34620	1277.59753	-623.14878	-165.18108	1738.54687	-543.54708	-116.61997	1662.57915	-397.47248	-92.72796	1684.68376	-698.66918	-57.86098	1639.02573	-523.97006	-50.86765	1644.49872	-564.16431	-141.17285	1442.62181	-291.14634	-186.05250	1332.58019	-325.14680	-166.95228	1362.71911	-258.13247	-79.96209	1268.91829	-252.34574	-20.17421	1169.43992	-259.89334	-49.97225	1149.04423	-233.92753	-50.97242	1576.56654	-765.70331	-91.47489	1357.17632	-814.42694	-56.26957	1386.82515	-863.57484	40.27423	1339.70864	-806.16031	106.80294	1259.48081	-740.73896	112.56891	1238.73122	-771.64438	-193.32488	1184.72794	-465.89559	-181.53712	1185.85725	-665.83767	-188.52489	1181.68098	-469.45016	-188.04455	1176.11014	-637.67675	
166	1.65000000	-113.59563	815.19093	-403.92743	-119.23463	742.76595	-382.66170	-178.49553	443.29409	-449.34031	-231.98740	470.55914	-505.18764	-140.58570	326.63037	-437.30640	-78.90754	323.66141	-474.10242	-134.28380	810.43672	-724.72224	-103.85703	745.27604	-727.49571	-173.22076	438.58611	-720.45080	-252.60720	436.02349	-680.57725	-109.30899	344.04046	-733.09644	-60.03541	346.83728	-674.78842	-139.84575	631.93375	-388.75580	-185.03563	756.11402	-415.82934	-210.69061	643.79292	-428.29331	-189.38069	761.93794	-750.46231	-196.31943	639.94661	-756.66929	-110.90955	1130.16128	-410.09398	-81.74133	1022.96416	-391.97209	-132.28118	988.32496	-364.36782	-216.46241	1107.63958	-373.87629	-187.66419	993.63347	-376.86954	-114.04392	1101.07445	-740.55777	-91.65084	963.80936	-738.04776	-229.35203	1082.74128	-746.95997	-198.98509	944.45764	-740.47841	-126.91750	1263.53053	-437.98060	-302.54655	1287.42008	-517.77887	-117.47320	1261.24056	-692.13282	-301.79075	1283.64136	-623.30367	-163.33708	1744.00971	-542.66354	-115.32402	1668.58271	-397.35706	-91.93141	1691.76508	-697.76496	-55.71753	1644.28463	-523.01948	-48.77962	1650.12299	-563.92887	-139.06666	1446.37740	-295.11436	-189.37451	1338.52384	-330.64711	-165.75951	1366.31501	-263.63033	-80.21366	1271.08354	-264.27786	-21.92256	1170.93321	-276.77577	-50.67248	1150.47832	-249.85809	-51.12850	1581.15967	-762.87292	-98.08026	1362.65747	-804.78311	-63.32648	1389.19091	-855.64645	32.94106	1338.64311	-801.22913	98.60236	1254.98005	-737.29790	102.05869	1233.47339	-768.16052	-192.64641	1190.34968	-466.53738	-182.33211	1191.11143	-666.56156	-188.79119	1187.48882	-471.55857	-187.59124	1181.48136	-639.30966	
